<?xml version="1.0" encoding="UTF-8" standalone="no"?>
<svg xmlns="http://www.w3.org/2000/svg" viewBox="0 0 118.731 118.731">
  <path fill="#124c06" d="M 26.658 30.928 v 48.94  a 43.087 44.158, 0, 0, 0, 13.394  10.749 V 30.928 z"/>
  <path fill="#2f720c" d="M 43.992 44.781 v 47.61  a 43.087 44.158, 0, 0, 0, 13.394   2.865 V 44.781 z"/>
  <path fill="#5aa93a" d="M 61.338 35.54  v 59.745 a 43.087 44.158, 0, 0, 0, 13.394  -2.865 V 35.54  z"/>
  <path fill="#98d77f" d="M 78.671 26.313 v 64.351 a 43.087 44.158, 0, 0, 0, 13.394 -10.749 V 26.313 z"/>
  <path fill="#46001a" d="
    M 69.076 .825
    l -.004 .004
    a 59.362 59.362, 0, 0, 1,  .043 .008
      45.694 48.77,  0, 0, 0, -.04 -.011
    z
    m .039 .012
    a 45.694 48.77,  0, 0, 1,  35.941  47.611
      45.694 48.77,  0, 0, 1, -39.253  48.229
      45.694 48.77,  0, 0, 1,  -3.624    .44
      37.855 37.855, 0, 0, 1,  -2.808    .109
      37.855 37.855, 0, 0, 1,   -.111   -.008
      37.855 37.855, 0, 0, 1,  -3.834   -.203
      45.694 48.77,  0, 0, 1, -41.762 -48.56
    A 45.694 48.77,  0, 0, 1,  49.35     .926
      59.362 59.362, 0, 0, 0,   0      59.372
    a 59.362 59.362, 0, 0, 0,  59.367  59.358
      59.362 59.362, 0, 0, 0,  59.357 -59.358
    A 59.362 59.362, 0, 0, 0,  69.115    .837
    z
  "/>
</svg>
