<?xml version="1.0" encoding="UTF-8" standalone="no"?>
<svg xmlns="http://www.w3.org/2000/svg" viewBox="0 0 529.167 118.731">
  <path fill="#124c06" d="M 26.658 30.928 v 48.94  a 43.087 44.158, 0, 0, 0, 13.394  10.749 V 30.928 z"/>
  <path fill="#2f720c" d="M 43.992 44.781 v 47.61  a 43.087 44.158, 0, 0, 0, 13.394   2.865 V 44.781 z"/>
  <path fill="#5aa93a" d="M 61.338 35.54  v 59.745 a 43.087 44.158, 0, 0, 0, 13.394  -2.865 V 35.54  z"/>
  <path fill="#98d77f" d="M 78.671 26.313 v 64.351 a 43.087 44.158, 0, 0, 0, 13.394 -10.749 V 26.313 z"/>
  <path fill="#46001a" d="
    M 69.076 .825
    l -.004 .004
    a 59.362 59.362, 0, 0, 1,  .043 .008
      45.694 48.77,  0, 0, 0, -.04 -.011
    z
    m .039 .012
    a 45.694 48.77,  0, 0, 1,  35.941  47.611
      45.694 48.77,  0, 0, 1, -39.253  48.229
      45.694 48.77,  0, 0, 1,  -3.624    .44
      37.855 37.855, 0, 0, 1,  -2.808    .109
      37.855 37.855, 0, 0, 1,   -.111   -.008
      37.855 37.855, 0, 0, 1,  -3.834   -.203
      45.694 48.77,  0, 0, 1, -41.762 -48.56
    A 45.694 48.77,  0, 0, 1,  49.35     .926
      59.362 59.362, 0, 0, 0,   0      59.372
    a 59.362 59.362, 0, 0, 0,  59.367  59.358
      59.362 59.362, 0, 0, 0,  59.357 -59.358
    A 59.362 59.362, 0, 0, 0,  69.115    .837
    z
  "/>
  <path fill="#46001a" d="
    M 132.12 0
    v 118.73
    h 22.347
    V 75.04
    h 21.343
    l 23.012 43.69
    h 25.848
    l -26.514 -47.86
    c   1.445  -.555,   3.447  -1.445,   6.004  -2.668
        2.668 -1.222,   5.279  -3.113,   7.836  -5.67
        2.557 -2.556,   4.782  -5.947,   6.672 -10.171
        2     -4.336,   3      -9.838,   3     -16.508
        0     -5.225,   -.944 -10.006,  -2.834 -14.342
       -1.779 -4.447,  -4.392  -8.227,  -7.838 -11.34
       -3.335 -3.224,  -7.503  -5.725, -12.506  -7.504
    C 193.598   .888, 187.983   0,     181.646   0
    z
    m 22.347 19.677
    h 21.01
    c  7.781 0,     13.506  1.612,  17.175  4.836
       3.78  3.224,  5.67   7.56,    5.67  13.008
       0     5.67,  -1.833 10.06,   -5.502 13.174
      -3.669 3.112, -8.338  4.668, -14.008  4.668
    h -24.345
    z
  "/>
  <path fill="#46001a" d="
    M 238.061 .01
    v 118.727
    h 22.343
    V 69.714
    h 2.615
    v -.032
    h 39.945
    v -20.68
    l -42.56 .032
    V 20.69
    h 56.009
    V .01
    z
  "/>
  <path fill="#46001a" d="
    M 329.815 .012
    v 118.727
    h 78.32
    v -20.68
    h -55.978
    V 20.692
    h 55.979
    V .012
    M 334.559 49.022
    V 69.72
    h 20.21
    v -.032
    h 39.921
    V 49.015
    z
  "/>
  <path fill="#46001a" d="
    M 469.808 .005
    a 59.362 59.362, 0, 0, 0, -59.362  59.362
      59.362 59.362, 0, 0, 0,  59.362  59.362
      59.362 59.362, 0, 0, 0,  59.362 -59.362
    A 59.362 59.362, 0, 0, 0, 469.808    .005
    z
    m 0 21.514
    a 37.855 37.855, 0, 0, 1,  37.855  37.855
      37.855 37.855, 0, 0, 1, -37.855  37.855
      37.855 37.855, 0, 0, 1, -37.855 -37.855
      37.855 37.855, 0, 0, 1,  37.855 -37.855
    z
  "/>
</svg>
